# xmcd
#
# Track frame offsets: 
#        150
#        13505
#        27856
#        45960
#        60671
#        78015
#        98220
#        111293
#        129852
#        143450
#        165277
#
# Disc length: 2463 seconds
#
# Revision: 0
# Processed by: cddbd v1.5.2PL0 Copyright (c) Steve Scherf et al.
# Submitted via: ExactAudioCopy v1.0b1
#
DISCID=71099d0b
DTITLE=Luke Bryan - Doin' My Thing
DYEAR=2009
DGENRE=Country
TTITLE0=Rain Is a Good Thing
TTITLE1=Doin' My Thing
TTITLE2=Do I
TTITLE3=What Country Is
TTITLE4=Someone Else Calling You Baby
TTITLE5=Welcome to the Farm
TTITLE6=Apologize
TTITLE7=Every Time I See You
TTITLE8=Chuggin' Along
TTITLE9=I Did It Again
TTITLE10=Drinkin' Beer and Wastin' Bullets
EXTD=
EXTT0=
EXTT1=
EXTT2=
EXTT3=
EXTT4=
EXTT5=
EXTT6=
EXTT7=
EXTT8=
EXTT9=
EXTT10=
PLAYORDER=
